<?xml version="1.0" encoding="UTF-8" standalone="no"?>
<!-- Created with Inkscape (http://www.inkscape.org/) -->

<svg
   width="175.76474mm"
   height="96.532936mm"
   viewBox="0 0 175.76474 96.532936"
   version="1.1"
   id="svg1"
   xml:space="preserve"
   inkscape:export-filename=".\bitmap.svg"
   inkscape:export-xdpi="300"
   inkscape:export-ydpi="300"
   xmlns:inkscape="http://www.inkscape.org/namespaces/inkscape"
   xmlns:sodipodi="http://sodipodi.sourceforge.net/DTD/sodipodi-0.dtd"
   xmlns="http://www.w3.org/2000/svg"
   xmlns:svg="http://www.w3.org/2000/svg"><sodipodi:namedview
     id="namedview1"
     pagecolor="#ffffff"
     bordercolor="#000000"
     borderopacity="0.25"
     inkscape:showpageshadow="2"
     inkscape:pageopacity="0.0"
     inkscape:pagecheckerboard="0"
     inkscape:deskcolor="#d1d1d1"
     inkscape:document-units="mm" /><defs
     id="defs1" /><g
     inkscape:label="Layer 1"
     inkscape:groupmode="layer"
     id="layer1"
     transform="translate(-22.047047,-68.685568)"><g
       id="g4"
       inkscape:export-filename="Logo.svg"
       inkscape:export-xdpi="300"
       inkscape:export-ydpi="300"><g
         id="g6"
         transform="translate(6.8331964,-14.886606)"><path
           style="fill:#d4d4d4;stroke:none"
           d="m 77.259826,83.572174 v 24.077086 h 15.08125 v 3.96875 c -1.351185,0.004 -5.397908,0.42316 -5.384346,2.06322 0.130531,1.72045 2.947993,1.52183 3.609943,1.56094 2.406633,0.14221 5.281795,0.15355 7.923155,0.12213 1.073327,-0.0128 3.848522,-0.0892 3.734292,-1.67465 -0.0986,-1.36787 -4.093499,-2.06808 -5.385127,-2.07164 v -3.96875 h 10.847917 c 5.43118,0 4.49792,0.52782 4.49792,-6.35 V 83.572174 H 77.259826 m 40.216664,1.322916 v 30.42708 h 15.34584 V 84.89509 h -15.34584 m -8.20208,0.79375 v 18.52083 H 79.90566 V 85.68884 h 29.36875 m 21.69583,1.322917 v 1.5875 h -11.64166 v -1.5875 h 11.64166 m -0.52916,2.38125 v 0.529167 h -1.85209 v -0.529167 h 1.85209 m 0,5.55625 v 0.529167 h -6.61459 v -0.529167 h 6.61459 m 0.26458,6.614583 v 1.85208 h -2.11667 v -1.85208 h 2.11667 m -22.48958,5.02708 v -1.32291 c 1.01694,0.33799 1.01695,0.98492 0,1.32291 m 11.37708,3.70417 -0.0489,3.26128 -0.4803,-0.0863 v -3.175 h 0.52917 m 1.32292,0 -0.092,3.26128 -0.43714,-0.0863 v -3.175 h 0.52917 m 1.05833,0 v 3.175 l -0.52343,0.0431 0.006,-3.21814 m 1.84062,0 v 3.175 l -0.39401,-2e-5 -0.12368,-3.175 m 1.8406,0 v 3.175 l -0.43714,0.0431 -0.0371,-3.21814 m 1.79748,4e-5 v 3.175 l -0.43714,0.0431 -0.0805,-3.26128 m 1.84062,0.0431 v 3.175 h -0.4803 l -0.0374,-3.175 m 1.84061,0 v 3.175 l -0.394,0.0431 -0.0491,-3.175 0.44287,-0.0431 m 1.32292,0 v 3.175 h -0.52917 v -3.175 l 0.52917,0.0863 m 1.32292,-0.0863 -0.0489,3.13186 -0.48029,0.0431 v -3.175 h 0.52917 m -57.414587,14.81667 h 41.539587 c -1.08451,-2.09056 -4.36449,-5.88991 -6.61459,-6.71952 -1.63554,-0.60303 -4.09088,-0.15965 -5.82083,-0.15965 h -12.7 c -2.710873,0 -7.271509,-0.42914 -10.054167,0.27193 -2.562695,0.64565 -4.848961,4.47434 -6.35,6.60724 m 44.189507,-6.73422 c -1.84285,0.41263 -1.65504,2.05161 -0.69352,3.29443 1.27234,1.64458 3.72938,3.42847 5.96559,2.82631 1.52987,-0.41197 0.9832,-2.14632 0.33194,-3.09049 -1.12179,-1.62631 -3.47927,-3.506 -5.60401,-3.03025 m -44.45409,7.26338 v 1.5875 h 42.06875 v -1.5875 H 73.55566 m -49.741667,33.3375 v -4.23333 h 14.552083 c 2.111729,0 4.552965,0.0543 5.699975,-2.12729 1.33695,-2.54288 -0.471151,-5.33306 -3.054141,-5.89759 -5.290771,-1.15633 -11.78169,-0.1772 -17.197917,-0.1772 v -4.23334 c 6.966312,0 14.821685,1.02777 21.695833,-0.0566 2.399361,-0.37847 3.715164,-2.98339 3.039035,-5.23511 -0.900926,-3.00038 -4.225881,-2.91042 -6.743201,-2.91042 h -19.05 c -2.412206,0 -5.538545,-0.16915 -6.831803,2.38227 -1.388883,2.74008 -0.311947,8.32098 -0.311947,11.37606 v 12.7 c 0,1.85362 -0.335585,3.83266 1.087118,5.26309 1.847909,1.85794 4.725002,1.3515 7.114965,1.3515 H 39.42441 c 2.165638,0 5.179351,0.54037 7.142728,-0.50794 2.686299,-1.43429 2.931693,-5.52458 0.261523,-7.16253 -1.580051,-0.96924 -4.03775,-0.53162 -5.816751,-0.53162 h -6.35 -10.847917 M 55.034826,134.2698 c -5.75323,0.30112 -3.96875,9.19974 -3.96875,13.06687 0,2.78411 -0.133034,5.51272 0.726583,8.20208 2.223593,6.95661 9.10739,11.94187 16.471334,11.63125 6.667051,-0.28122 13.011229,-4.67498 15.147808,-11.10208 1.112278,-3.34588 0.991775,-6.83825 0.991775,-10.31875 0,-3.20188 1.21287,-9.4138 -2.385125,-11.0927 -3.691878,-1.72271 -5.92958,1.77994 -6.071125,5.00728 -0.262081,5.97559 1.636722,20.57898 -8.741666,19.20026 -8.559039,-1.13703 -7.9375,-10.37315 -7.9375,-16.81901 0,-3.08531 0.2912,-8.01202 -4.233334,-7.7752 m 47.889584,-0.05 c -4.263298,0.56006 -7.806702,1.44617 -11.111483,4.43157 -6.937141,6.26673 -6.920201,17.3262 -0.264583,23.75615 4.894105,4.72817 10.834086,4.77292 17.196896,4.77292 2.54362,0 6.41325,0.71835 8.73105,-0.44669 3.37915,-1.69853 2.38145,-6.48679 2.38145,-9.60748 0,-1.26145 0.20907,-2.7511 -0.17271,-3.96875 -0.33587,-1.0712 -1.21707,-2.0841 -2.20874,-2.60215 -0.56226,-0.29372 -1.22261,-0.39902 -1.85188,-0.37992 -2.93609,0.0891 -3.9645,2.55403 -3.96875,5.09874 -0.002,0.92774 0.30001,2.55569 -0.42423,3.27993 -0.79654,0.79655 -2.7825,0.42423 -3.8091,0.42423 -4.07512,0 -7.948881,-0.39209 -10.791577,-3.70518 -3.521313,-4.10401 -1.11114,-9.71527 3.383237,-11.81969 3.70678,-1.73565 8.19387,-1.14388 12.17084,-1.14388 1.91793,0 4.43593,0.45543 6.07378,-0.74189 2.55574,-1.86833 1.83222,-5.94132 -1.0469,-7.04657 -3.6477,-1.4003 -10.43491,-0.80741 -14.2873,-0.30134 m 27.51667,24.75855 v -4.23333 c 5.52765,0 11.7423,0.80396 17.19791,-0.0566 1.8746,-0.29567 3.34369,-2.02851 3.40427,-3.9122 0.0793,-2.46552 -1.94733,-3.94542 -4.19802,-4.1874 -5.34487,-0.57463 -11.02679,-0.0459 -16.40416,-0.0459 v -4.23334 h 10.84791 6.35 c 1.779,0 4.2367,0.43763 5.81675,-0.53162 2.59673,-1.59289 2.41952,-5.67228 -0.26151,-7.09781 -1.99647,-1.06154 -4.96227,-0.57265 -7.14274,-0.57265 h -15.875 c -2.28001,0 -5.269,-0.37079 -7.03943,1.42622 -1.34007,1.36019 -1.16265,3.70003 -1.16265,5.45295 v 12.17083 c 0,3.39652 -1.0319,8.86322 0.67677,11.90237 1.46017,2.59717 4.46439,2.12055 6.99615,2.12055 h 19.05 c 2.46227,0 5.6758,0.10522 6.49984,-2.91042 0.64691,-2.3674 -0.87554,-4.93271 -3.32484,-5.24267 -6.91357,-0.87492 -14.45818,-0.049 -21.43125,-0.049 M 165.89524,148.395 c 4.89785,4.8979 9.92249,9.6579 14.81667,14.55208 1.77833,1.77833 3.97946,4.74484 6.87917,4.1282 3.13149,-0.66593 3.175,-3.39425 3.175,-5.98028 v -17.19792 c 0,-2.09678 0.64481,-5.5047 -0.31195,-7.40813 -1.40423,-2.79364 -5.63339,-2.97802 -7.21337,-0.25335 -1.26052,2.17375 -0.67677,5.51055 -0.67677,7.92607 v 8.46666 c -4.88862,-4.78776 -9.68498,-9.83685 -14.81666,-14.36303 -1.90195,-1.67754 -3.71116,-4.42153 -6.61459,-3.95405 -1.78685,0.28769 -3.31286,1.66063 -3.42795,3.50042 -0.39392,6.29645 -0.0116,12.74 -0.0116,19.05 0,2.22664 -0.70228,5.91953 0.31195,7.93729 1.4523,2.88929 5.65054,3.11553 7.25052,0.2607 1.22729,-2.18982 0.63961,-5.50901 0.63961,-7.93341 V 148.395 M 20.37444,176.44116 v 1.05834 h 46.83125 v -1.0583 H 20.37441 m 118.79792,0 v 1.05834 h 46.83125 v -1.05834 z m -21.09899,-57.82868 2.2879,1.31417 -0.18787,0.31765 -2.46493,-1.47934"
           id="path6"
           sodipodi:nodetypes="cccccscsccssccccccccccccccccccccccccccccccccccccccccccccccccccccccccccccccccccccccccccccccccccssssccsssccccccccsssccssssssssssssscccsssssssssccsssssssscssssssscccssscccsssssssssssssccssssssscsssssssccccccccccccccc" /><text
           xml:space="preserve"
           style="font-style:normal;font-variant:normal;font-weight:normal;font-stretch:normal;font-size:9.87777px;font-family:'Arial Rounded MT Bold';-inkscape-font-specification:'Arial Rounded MT Bold, ';fill:#d4d4d4;fill-opacity:1;stroke-width:0.264583"
           x="69.888527"
           y="179.98453"
           id="text6"><tspan
             sodipodi:role="line"
             id="tspan6"
             x="69.888527"
             y="179.98453"
             style="font-style:normal;font-variant:normal;font-weight:normal;font-stretch:normal;font-family:'Arial Rounded MT Bold';-inkscape-font-specification:'Arial Rounded MT Bold, ';fill:#d4d4d4;fill-opacity:1;stroke-width:0.264583">AUTOMATION</tspan></text></g></g></g></svg>
